<svg preserveAspectRatio="none" width="100%" height="100%" overflow="visible" style="display: block;" viewBox="0 0 64 65" fill="none" xmlns="http://www.w3.org/2000/svg">
<g id="Hammer-cursor" filter="url(#filter0_d_6376_1094)">
<path id="Vector" d="M30.9656 8.59075C32.9619 8.49162 34.9588 8.78368 36.8428 9.45117C41.513 11.0968 44.6383 13.5032 46.115 14.8229C46.1232 14.8301 46.1309 14.8371 46.1389 14.8445C47.1133 15.7289 48.0214 16.6835 48.8558 17.7009L48.8666 17.7139L48.8765 17.7262C49.2466 18.195 49.4796 18.6861 49.6281 19.1525C50.0112 19.1675 50.3904 19.2401 50.7531 19.3685C51.2275 19.5365 51.664 19.7968 52.0375 20.134L56.5119 24.165L56.5181 24.1706C56.7017 24.3376 56.8591 24.5306 56.9856 24.7432L57.1019 24.9625L57.1959 25.1913C57.2783 25.4247 57.3261 25.6694 57.3369 25.9176C57.3512 26.2484 57.2994 26.5789 57.1854 26.8897C57.0726 27.1972 56.8998 27.4788 56.6786 27.7202L56.6795 27.721L49.7673 35.2898C49.3205 35.7792 48.6981 36.0722 48.0362 36.1044C47.3742 36.1365 46.7264 35.9052 46.2343 35.4613L41.7535 31.4213C41.3795 31.0847 41.0754 30.6768 40.859 30.2226C40.755 30.0041 40.673 29.7767 40.6121 29.5437C40.5278 29.6263 40.4396 29.7122 40.349 29.8017C39.7385 30.4049 39.0407 31.1115 38.4726 31.6821L38.4686 31.6857C38.2496 31.9041 37.9932 32.0765 37.7156 32.2C37.7588 32.3783 37.7857 32.5607 37.7945 32.7449C37.8125 33.1257 37.7549 33.5065 37.6256 33.8651C37.5024 34.2068 37.3151 34.5213 37.0754 34.794L37.0763 34.7948L18.7351 56.1917C18.4828 56.4861 18.1737 56.7267 17.8267 56.8996C17.4795 57.0725 17.101 57.174 16.714 57.198C16.3268 57.222 15.9382 57.1682 15.5723 57.0395C15.2066 56.9108 14.8707 56.7093 14.5839 56.4482L7.8469 50.3142C7.56066 50.0534 7.32911 49.7382 7.16683 49.3866C7.00459 49.0351 6.91468 48.6542 6.90193 48.2672L6.90079 48.1218C6.90661 47.7838 6.97138 47.4488 7.0929 47.1325C7.23176 46.771 7.44191 46.4412 7.71042 46.1622L27.2355 25.8638C27.4841 25.5988 27.7799 25.3825 28.1085 25.2269L28.2393 25.169C28.547 25.0415 28.8746 24.9674 29.2079 24.9511C29.366 24.9435 29.5241 24.9499 29.6806 24.9679C29.7595 24.7149 29.8764 24.4731 30.0332 24.2541C30.6622 23.3753 31.171 22.5462 31.5091 21.9095C31.6752 21.5965 31.7859 21.3536 31.8504 21.1902C31.6819 19.8737 31.258 19.2332 30.6209 18.7672C30.4631 18.6562 30.0834 18.4593 29.5471 18.2833C29.0206 18.1104 28.4776 18.0018 28.0403 17.9869L28.0343 17.9864C27.607 17.9705 27.1797 18.0176 26.766 18.1257C26.4981 18.204 26.1823 18.2972 25.929 18.3727C25.7982 18.4117 25.6847 18.4463 25.6039 18.4705C25.5636 18.4826 25.5309 18.4922 25.5089 18.4988C25.4981 18.502 25.4895 18.5042 25.4839 18.5059C25.4811 18.5068 25.4786 18.5075 25.4772 18.5079L25.4764 18.5088L24.7805 18.7176L24.1454 18.368L21.5391 16.9361L21.6546 15.7974C21.8148 14.2176 22.5127 12.7405 23.6314 11.6138L23.8585 11.3956C25.0845 10.2743 27.632 8.75321 30.9656 8.59075Z" fill="var(--fill-0, white)"/>
<path id="Vector_2" d="M35.6848 32.0166L30.1354 26.9821C30.0217 26.8786 29.8887 26.7985 29.744 26.7465C29.5993 26.6945 29.4457 26.6715 29.2921 26.679C29.1385 26.6864 28.9879 26.7241 28.8489 26.7899C28.7099 26.8557 28.5853 26.9483 28.4821 27.0624L8.95676 47.3613C8.84848 47.4738 8.76385 47.6068 8.70786 47.7526C8.65187 47.8983 8.62567 48.0538 8.63079 48.2099C8.63591 48.3659 8.67226 48.5194 8.73769 48.6612C8.80312 48.8029 8.8963 48.9301 9.01172 49.0353L15.7481 55.1692C15.8638 55.2745 15.9994 55.3555 16.1469 55.4074C16.2944 55.4593 16.4508 55.481 16.6069 55.4713C16.7629 55.4617 16.9155 55.4208 17.0554 55.3511C17.1954 55.2814 17.32 55.1843 17.4217 55.0656L35.763 33.669C35.8666 33.5554 35.9467 33.4226 35.9988 33.278C36.0509 33.1335 36.074 32.98 36.0667 32.8266C36.0594 32.6731 36.0219 32.5225 35.9564 32.3835C35.8909 32.2446 35.7986 32.1199 35.6848 32.0166ZM55.3544 25.4496L50.8802 21.4186C50.6755 21.2335 50.4362 21.0908 50.1761 20.9987C49.916 20.9066 49.6402 20.8669 49.3647 20.882C48.9181 20.9042 48.4898 21.0661 48.1404 21.345C48.1383 21.3032 48.1422 21.2621 48.1433 21.2259C48.1564 20.5917 48.1781 19.6334 47.5186 18.7978C46.7363 17.8438 45.8848 16.9488 44.971 16.1199C44.9685 16.1172 44.9658 16.1147 44.9629 16.1125C43.6055 14.8994 40.6695 12.6332 36.2651 11.0817C34.5937 10.4896 32.8227 10.2302 31.0518 10.3181C27.9825 10.4671 25.7157 11.9653 24.8618 12.8295C24.0207 13.6753 23.496 14.7846 23.3757 15.9713L24.9781 16.8518C24.9781 16.8518 25.7525 16.6192 26.31 16.4566C26.8932 16.3023 27.4961 16.2353 28.0989 16.2577C29.3868 16.3014 30.9348 16.8647 31.6316 17.3622C32.8139 18.2221 33.4213 19.4286 33.6014 21.272C33.6409 21.6825 32.7764 23.3933 31.44 25.2606C31.3288 25.4159 31.2785 25.6065 31.2987 25.7964C31.3189 25.9863 31.4081 26.1621 31.5494 26.2905L36.176 30.4886C36.3241 30.6219 36.5177 30.6933 36.7169 30.6881C36.9162 30.683 37.1058 30.6017 37.2469 30.461C38.3688 29.3342 40.0799 27.594 40.4742 27.3224C41.1997 26.8261 41.7303 26.7116 41.8764 26.6889C42.2557 26.6332 42.6429 26.6953 42.9856 26.867C42.9881 26.8836 42.9871 26.9005 42.9826 26.9167C42.9782 26.9328 42.9705 26.9479 42.9599 26.9609L42.7911 27.1377L42.7633 27.1664C42.5771 27.3707 42.4333 27.6099 42.34 27.87C42.2467 28.1302 42.2058 28.4063 42.2197 28.6823C42.2335 28.9584 42.3019 29.2289 42.4207 29.4785C42.5396 29.728 42.7067 29.9515 42.9123 30.1362L47.3928 34.1766C47.5456 34.3145 47.7467 34.3862 47.9523 34.3762C48.1578 34.3663 48.351 34.2754 48.4898 34.1234L55.4022 26.5547C55.472 26.4792 55.5261 26.3906 55.5616 26.2941C55.597 26.1975 55.6129 26.0949 55.6085 25.9922C55.604 25.8895 55.5793 25.7886 55.5357 25.6955C55.4921 25.6024 55.4304 25.5188 55.3544 25.4496Z" fill="var(--fill-0, #190303)"/>
</g>
<defs>
<filter id="filter0_d_6376_1094" x="-3.45946" y="0" width="70.9189" height="70.9189" filterUnits="userSpaceOnUse" color-interpolation-filters="sRGB">
<feFlood flood-opacity="0" result="BackgroundImageFix"/>
<feColorMatrix in="SourceAlpha" type="matrix" values="0 0 0 0 0 0 0 0 0 0 0 0 0 0 0 0 0 0 127 0" result="hardAlpha"/>
<feOffset dy="3.45946"/>
<feGaussianBlur stdDeviation="1.72973"/>
<feColorMatrix type="matrix" values="0 0 0 0 0 0 0 0 0 0 0 0 0 0 0 0 0 0 0.25 0"/>
<feBlend mode="normal" in2="BackgroundImageFix" result="effect1_dropShadow_6376_1094"/>
<feBlend mode="normal" in="SourceGraphic" in2="effect1_dropShadow_6376_1094" result="shape"/>
</filter>
</defs>
</svg>
