<svg width="16" height="16" viewBox="0 0 16 16" fill="none" xmlns="http://www.w3.org/2000/svg">
<path d="M11.5306 10.4694C11.6005 10.539 11.656 10.6218 11.6938 10.713C11.7317 10.8042 11.7512 10.9019 11.7512 11.0006C11.7512 11.0993 11.7317 11.1971 11.6938 11.2882C11.656 11.3794 11.6005 11.4622 11.5306 11.5319L8.5306 14.5319C8.46092 14.6018 8.37813 14.6573 8.28696 14.6951C8.1958 14.733 8.09806 14.7524 7.99935 14.7524C7.90064 14.7524 7.8029 14.733 7.71173 14.6951C7.62057 14.6573 7.53778 14.6018 7.4681 14.5319L4.4681 11.5319C4.3272 11.391 4.24805 11.1999 4.24805 11.0006C4.24805 10.8013 4.3272 10.6103 4.4681 10.4694C4.60899 10.3285 4.80009 10.2493 4.99935 10.2493C5.19861 10.2493 5.3897 10.3285 5.5306 10.4694L7.99997 12.9375L10.4693 10.4675C10.5391 10.3979 10.6219 10.3427 10.7131 10.3051C10.8042 10.2675 10.9018 10.2483 11.0004 10.2485C11.0989 10.2486 11.1965 10.2682 11.2875 10.3061C11.3784 10.344 11.4611 10.3995 11.5306 10.4694ZM5.5306 5.53186L7.99997 3.06248L10.4693 5.53248C10.6102 5.67338 10.8013 5.75253 11.0006 5.75253C11.1999 5.75253 11.391 5.67338 11.5318 5.53248C11.6727 5.39158 11.7519 5.20049 11.7519 5.00123C11.7519 4.80197 11.6727 4.61088 11.5318 4.46998L8.53185 1.46998C8.46217 1.40006 8.37938 1.34458 8.28821 1.30673C8.19705 1.26888 8.09931 1.24939 8.0006 1.24939C7.90189 1.24939 7.80415 1.26888 7.71298 1.30673C7.62182 1.34458 7.53903 1.40006 7.46935 1.46998L4.46935 4.46998C4.32845 4.61088 4.2493 4.80197 4.2493 5.00123C4.2493 5.20049 4.32845 5.39158 4.46935 5.53248C4.61024 5.67338 4.80134 5.75253 5.0006 5.75253C5.19986 5.75253 5.39095 5.67338 5.53185 5.53248L5.5306 5.53186Z" fill="#09456F"/>
</svg>
