<svg width="450" height="168" viewBox="0 0 450 168" fill="none" xmlns="http://www.w3.org/2000/svg">
<path d="M405.588 136.07C399.415 136.07 393.871 134.873 388.957 132.479C384.17 130.086 380.327 126.873 377.429 122.841C374.657 118.683 373.271 113.896 373.271 108.478C373.271 101.423 375.539 95.69 380.075 91.2803C384.611 86.8706 391.099 83.8468 399.541 82.2089L421.652 77.6732C426.062 76.7913 429.086 75.4054 430.723 73.5155C432.361 71.6257 433.18 68.8539 433.18 65.2001L435.448 87.3116L403.698 94.1151C399.415 94.997 396.076 96.5719 393.682 98.8397C391.414 101.108 390.28 104.257 390.28 108.289C390.28 112.447 391.855 115.786 395.005 118.305C398.281 120.825 402.69 122.085 408.234 122.085C412.77 122.085 416.927 121.077 420.707 119.061C424.613 117.045 427.637 114.274 429.778 110.746C432.046 107.092 433.18 102.934 433.18 98.2728V65.2001C433.18 60.6644 431.542 57.1367 428.267 54.6169C425.117 51.9711 420.77 50.6482 415.226 50.6482C408.171 50.6482 402.753 52.412 398.974 55.9398C395.194 59.4675 392.989 64.4442 392.359 70.8697L375.728 68.6019C376.358 61.9244 378.374 56.1918 381.776 51.4041C385.178 46.4904 389.713 42.7107 395.383 40.0649C401.053 37.4191 407.793 36.0962 415.604 36.0962C426.692 36.0962 435.196 38.931 441.118 44.6006C447.039 50.2702 450 57.5777 450 66.523V133.235H433.558V120.951C431.92 125.109 428.582 128.7 423.542 131.723C418.628 134.621 412.644 136.07 405.588 136.07Z" fill="#D3F4FA"/>
<path d="M239.271 133.235V38.931H255.713V49.5142C256.973 45.8605 259.745 42.7107 264.028 40.0649C268.312 37.4191 273.289 36.0962 278.958 36.0962C284.502 36.0962 289.605 37.2931 294.266 39.6869C298.928 42.0808 301.952 45.6715 303.338 50.4592C304.976 46.0495 307.999 42.5847 312.409 40.0649C316.945 37.4191 321.984 36.0962 327.528 36.0962C337.103 36.0962 344.411 38.868 349.45 44.4116C354.49 49.9552 357.01 58.0186 357.01 68.6019V133.235H340.19V70.8697C340.19 64.5702 338.804 59.8455 336.032 56.6957C333.387 53.42 329.481 51.7821 324.315 51.7821C318.646 51.7821 314.236 53.7979 311.086 57.8296C308.062 61.7354 306.55 67.468 306.55 75.0274V133.235H289.731V70.8697C289.731 64.5702 288.345 59.8455 285.573 56.6957C282.927 53.42 279.021 51.7821 273.856 51.7821C268.186 51.7821 263.777 53.7979 260.627 57.8296C257.603 61.7354 256.091 67.468 256.091 75.0274V133.235H239.271Z" fill="#D3F4FA"/>
<path d="M174.957 167.253C163.24 167.253 153.728 164.544 146.42 159.126C139.113 153.709 134.451 146.149 132.435 136.448L148.877 132.857C150.263 139.031 153.224 143.819 157.759 147.22C162.295 150.748 168.028 152.512 174.957 152.512C183.273 152.512 189.509 150.37 193.667 146.086C197.951 141.929 200.092 135.692 200.092 127.377V112.447C198.203 117.108 194.675 120.888 189.509 123.786C184.47 126.684 178.8 128.133 172.5 128.133C164.185 128.133 156.878 126.243 150.578 122.463C144.278 118.557 139.365 113.14 135.837 106.21C132.309 99.2807 130.545 91.2803 130.545 82.2089C130.545 73.0116 132.309 64.9481 135.837 58.0186C139.365 51.0891 144.215 45.7345 150.389 41.9548C156.689 38.0491 164.059 36.0962 172.5 36.0962C178.8 36.0962 184.533 37.5451 189.698 40.4429C194.99 43.2147 198.581 46.6794 200.47 50.8371V38.931H216.912V127.377C216.912 135.692 215.274 142.811 211.999 148.732C208.723 154.78 203.935 159.378 197.636 162.528C191.462 165.678 183.903 167.253 174.957 167.253ZM174.579 113.203C182.643 113.203 189.068 110.368 193.856 104.698C198.77 99.0287 201.226 91.5323 201.226 82.2089C201.226 72.7596 198.77 65.2001 193.856 59.5305C188.942 53.8609 182.517 51.0261 174.579 51.0261C166.516 51.0261 160.027 53.8609 155.114 59.5305C150.326 65.2001 147.932 72.7596 147.932 82.2089C147.932 91.5323 150.389 99.0287 155.303 104.698C160.216 110.368 166.642 113.203 174.579 113.203Z" fill="#D3F4FA"/>
<path d="M96.6021 133.236V38.9312H113.422V133.236H96.6021ZM96.4131 26.8361V0H113.611V26.8361H96.4131Z" fill="#D3F4FA"/>
<path d="M0 133.236V0H17.7647V133.236H0ZM3.59075 76.9175V60.8537H75.9726V76.9175H3.59075ZM3.59075 16.2528V0H82.9651V16.2528H3.59075Z" fill="#D3F4FA"/>
</svg>
