<svg width="146" height="63" viewBox="0 0 146 63" fill="none" xmlns="http://www.w3.org/2000/svg">
<path d="M0 22.88L7.232 1.76H13.952L21.184 22.88H16.192L10.848 5.408H10.368L4.992 22.88H0ZM4.064 18.72V15.584H17.792V18.72H4.064Z" fill="#D3F4FA"/>
<path d="M23.8172 22.88V0H28.3612V22.88H23.8172Z" fill="#D3F4FA"/>
<path d="M36.5345 23.328C35.5958 23.328 34.7638 23.1467 34.0385 22.784C33.3132 22.4 32.7478 21.856 32.3425 21.152C31.9372 20.448 31.7345 19.5733 31.7345 18.528C31.7345 17.6107 31.9052 16.8427 32.2465 16.224C32.6092 15.6053 33.1318 15.104 33.8145 14.72C34.4972 14.336 35.3398 14.016 36.3425 13.76C37.3452 13.504 38.4865 13.28 39.7665 13.088C40.4492 12.9813 41.0038 12.8853 41.4305 12.8C41.8785 12.6933 42.2092 12.5333 42.4225 12.32C42.6358 12.0853 42.7425 11.7547 42.7425 11.328C42.7425 10.7307 42.5292 10.2187 42.1025 9.792C41.6758 9.36533 41.0038 9.152 40.0865 9.152C39.4678 9.152 38.8918 9.25867 38.3585 9.472C37.8465 9.68533 37.3985 10.0053 37.0145 10.432C36.6518 10.8587 36.3852 11.4027 36.2145 12.064L32.1505 10.816C32.4065 9.94133 32.7692 9.184 33.2385 8.544C33.7292 7.904 34.3158 7.37067 34.9985 6.944C35.6812 6.496 36.4598 6.16533 37.3345 5.952C38.2092 5.73867 39.1585 5.632 40.1825 5.632C41.8252 5.632 43.1585 5.89867 44.1825 6.432C45.2278 6.944 46.0065 7.75467 46.5185 8.864C47.0305 9.952 47.2865 11.36 47.2865 13.088V15.968C47.2865 16.7147 47.2972 17.472 47.3185 18.24C47.3612 19.008 47.4038 19.7867 47.4465 20.576C47.5105 21.344 47.5745 22.112 47.6385 22.88H43.5745C43.4892 22.3467 43.4038 21.7387 43.3185 21.056C43.2545 20.352 43.2012 19.648 43.1585 18.944H42.5825C42.2838 19.7547 41.8572 20.4907 41.3025 21.152C40.7478 21.8133 40.0652 22.3467 39.2545 22.752C38.4652 23.136 37.5585 23.328 36.5345 23.328ZM38.4865 20C38.8918 20 39.2972 19.9253 39.7025 19.776C40.1292 19.6267 40.5345 19.424 40.9185 19.168C41.3238 18.8907 41.6865 18.5493 42.0065 18.144C42.3478 17.7387 42.6252 17.28 42.8385 16.768L42.7745 14.08L43.5105 14.24C43.1265 14.5173 42.6785 14.7413 42.1665 14.912C41.6545 15.0613 41.1212 15.1787 40.5665 15.264C40.0332 15.3493 39.4998 15.4453 38.9665 15.552C38.4332 15.6587 37.9532 15.7973 37.5265 15.968C37.1212 16.1387 36.7905 16.3733 36.5345 16.672C36.2998 16.9493 36.1825 17.344 36.1825 17.856C36.1825 18.5173 36.3958 19.04 36.8225 19.424C37.2492 19.808 37.8038 20 38.4865 20Z" fill="#D3F4FA"/>
<path d="M51.3172 22.88V6.08H55.0933L55.0612 11.104H55.7013C55.9786 9.888 56.3733 8.87467 56.8853 8.064C57.3972 7.25333 58.0373 6.64533 58.8053 6.24C59.5946 5.83467 60.5226 5.632 61.5893 5.632C63.5306 5.632 65.0026 6.31467 66.0052 7.68C67.0292 9.04533 67.5413 11.1893 67.5413 14.112V22.88H62.9013V14.624C62.9013 12.832 62.6346 11.5307 62.1012 10.72C61.5892 9.888 60.8319 9.472 59.8293 9.472C58.9759 9.472 58.2612 9.73867 57.6852 10.272C57.1092 10.8053 56.6719 11.5093 56.3732 12.384C56.0959 13.2373 55.9466 14.1973 55.9253 15.264V22.88H51.3172Z" fill="#D3F4FA"/>
<path d="M83.5837 22.88V1.76H88.1917V22.88H83.5837ZM77.3438 5.632V1.76H94.4318V5.632H77.3438Z" fill="#D3F4FA"/>
<path d="M96.5048 22.88V6.08H100.313L100.345 11.808H100.953C101.123 10.3787 101.411 9.216 101.817 8.32C102.243 7.424 102.83 6.76267 103.577 6.336C104.323 5.90933 105.251 5.696 106.361 5.696C106.553 5.696 106.755 5.70667 106.969 5.728C107.203 5.728 107.47 5.76 107.769 5.824L107.577 10.72C107.257 10.5707 106.905 10.464 106.521 10.4C106.137 10.336 105.795 10.304 105.497 10.304C104.665 10.304 103.95 10.496 103.353 10.88C102.755 11.264 102.265 11.8187 101.881 12.544C101.518 13.248 101.273 14.112 101.145 15.136V22.88H96.5048Z" fill="#D3F4FA"/>
<path d="M114.066 23.328C113.127 23.328 112.295 23.1467 111.57 22.784C110.844 22.4 110.279 21.856 109.874 21.152C109.468 20.448 109.266 19.5733 109.266 18.528C109.266 17.6107 109.436 16.8427 109.778 16.224C110.14 15.6053 110.663 15.104 111.346 14.72C112.028 14.336 112.871 14.016 113.874 13.76C114.876 13.504 116.018 13.28 117.298 13.088C117.98 12.9813 118.535 12.8853 118.962 12.8C119.41 12.6933 119.74 12.5333 119.954 12.32C120.167 12.0853 120.274 11.7547 120.274 11.328C120.274 10.7307 120.06 10.2187 119.634 9.792C119.207 9.36533 118.535 9.152 117.618 9.152C116.999 9.152 116.423 9.25867 115.89 9.472C115.378 9.68533 114.93 10.0053 114.546 10.432C114.183 10.8587 113.916 11.4027 113.746 12.064L109.682 10.816C109.938 9.94133 110.3 9.184 110.77 8.544C111.26 7.904 111.847 7.37067 112.53 6.944C113.212 6.496 113.991 6.16533 114.866 5.952C115.74 5.73867 116.69 5.632 117.714 5.632C119.356 5.632 120.69 5.89867 121.714 6.432C122.759 6.944 123.538 7.75467 124.05 8.864C124.562 9.952 124.818 11.36 124.818 13.088V15.968C124.818 16.7147 124.828 17.472 124.85 18.24C124.892 19.008 124.935 19.7867 124.978 20.576C125.042 21.344 125.106 22.112 125.17 22.88H121.106C121.02 22.3467 120.935 21.7387 120.85 21.056C120.786 20.352 120.732 19.648 120.69 18.944H120.114C119.815 19.7547 119.388 20.4907 118.834 21.152C118.279 21.8133 117.596 22.3467 116.786 22.752C115.996 23.136 115.09 23.328 114.066 23.328ZM116.018 20C116.423 20 116.828 19.9253 117.234 19.776C117.66 19.6267 118.066 19.424 118.45 19.168C118.855 18.8907 119.218 18.5493 119.538 18.144C119.879 17.7387 120.156 17.28 120.37 16.768L120.306 14.08L121.042 14.24C120.658 14.5173 120.21 14.7413 119.698 14.912C119.186 15.0613 118.652 15.1787 118.098 15.264C117.564 15.3493 117.031 15.4453 116.498 15.552C115.964 15.6587 115.484 15.7973 115.058 15.968C114.652 16.1387 114.322 16.3733 114.066 16.672C113.831 16.9493 113.714 17.344 113.714 17.856C113.714 18.5173 113.927 19.04 114.354 19.424C114.78 19.808 115.335 20 116.018 20Z" fill="#D3F4FA"/>
<path d="M128.848 22.88V6.08H132.624L132.592 11.104H133.232C133.51 9.888 133.905 8.87467 134.417 8.064C134.929 7.25333 135.569 6.64533 136.337 6.24C137.126 5.83467 138.054 5.632 139.12 5.632C141.062 5.632 142.534 6.31467 143.536 7.68C144.56 9.04533 145.072 11.1893 145.072 14.112V22.88H140.432V14.624C140.432 12.832 140.166 11.5307 139.633 10.72C139.121 9.888 138.363 9.472 137.361 9.472C136.507 9.472 135.793 9.73867 135.217 10.272C134.641 10.8053 134.203 11.5093 133.904 12.384C133.627 13.2373 133.478 14.1973 133.456 15.264V22.88H128.848Z" fill="#D3F4FA"/>
<path d="M27 39.4601C27 39.5832 27.2725 40.1195 27.6593 40.7348C27.7121 40.814 27.8176 41.0162 27.9143 41.1744C28.2659 41.8162 29.7341 43.9788 30.2264 44.5942C31.7033 46.4491 32.0725 46.8535 33.3297 48.0843C34.8681 49.5788 36.9341 51.1436 38.1297 51.7239L38.5429 51.9173L39.167 51.5832C40.7319 50.7392 42.3758 49.4557 44.0549 47.7678C45.6901 46.1239 46.833 44.7348 48.0989 42.8359C49.1363 41.2887 50.1209 39.6184 50.1209 39.4074C50.1209 39.3458 49.778 39.3195 49.0483 39.337L47.9758 39.3634L47.5275 40.1546C46.2879 42.3524 44.7055 44.4008 42.745 46.3612C41.7516 47.3546 40.3099 48.5854 39.6066 49.0513C39.5099 49.1129 39.2461 49.2975 39.0088 49.4645C38.6308 49.7283 38.5516 49.7546 38.3846 49.6667C37.6022 49.2272 35.5451 47.5744 34.4725 46.5195C33.6813 45.737 32.4681 44.3744 31.9231 43.6623C31.7033 43.381 31.5099 43.1261 31.4835 43.0997C31.2813 42.8975 29.8659 40.7173 29.4703 39.9964L29.1011 39.3195H28.0461C27.1407 39.3195 27 39.337 27 39.4601Z" fill="#D3F4FA"/>
<path d="M59.8176 39.6272C58.8418 40.1546 57.4 41.1744 56.4066 42.0447C55.9494 42.4403 53.8571 44.5326 53.4615 44.9898C52.3626 46.2469 50.6044 48.6821 49.8483 49.9832C49.1538 51.1788 48.8022 51.8118 48.8022 51.8645C48.8022 51.8733 49.2945 51.8909 49.9011 51.8909H50.9912L51.3165 51.2931C51.8264 50.3876 52.2923 49.6491 52.9956 48.6645L53.6374 47.7766L54.2352 47.7151C54.5604 47.6799 55.0439 47.6272 55.3077 47.5832C56.9604 47.3195 64.8637 47.1524 66.3846 47.3546C66.956 47.425 66.956 47.425 67.3516 47.9612C68.3451 49.3063 69.6461 51.3283 69.7692 51.7239C69.822 51.8733 69.9275 51.8909 70.9209 51.8909C71.589 51.8909 72.011 51.8557 72.011 51.803C72.011 51.6623 71.0439 49.992 70.3143 48.8843C69.945 48.3217 69.6374 47.8381 69.6374 47.803C69.6374 47.7326 70.1033 47.8206 71.2989 48.1195C71.8527 48.2601 72.3363 48.3744 72.3714 48.3744C72.4593 48.3744 73.5934 46.9239 73.5934 46.8096C73.5934 46.7568 73.2066 46.6337 72.7407 46.537C72.2659 46.4316 71.7385 46.3085 71.5714 46.2645C71.2637 46.1854 69.567 45.8865 68.5385 45.737C68.0198 45.6667 68.0022 45.6491 67.3956 44.9722C65.8923 43.2843 63.9319 41.4997 62.5165 40.5414C61.9187 40.1283 60.5121 39.3195 60.4154 39.3283C60.389 39.3283 60.1165 39.4601 59.8176 39.6272ZM61.7692 42.3876C62.6132 42.9942 63.4923 43.7502 64.4593 44.6821C65.1011 45.2887 65.1626 45.3766 64.9341 45.3239C64.7934 45.2887 63.211 45.2623 61.4176 45.2623C58.4901 45.2623 57.5055 45.3151 55.9231 45.5261L55.5275 45.5788L56.2308 44.8579C57.233 43.8294 58.9912 42.3876 60.0989 41.6843L60.4505 41.4645L60.8901 41.7634C61.1363 41.9305 61.5319 42.2118 61.7692 42.3876Z" fill="#D3F4FA"/>
<path d="M72.1868 39.4425C72.1868 39.6008 73.6374 42.0008 74.4549 43.1876C76.4681 46.1414 79.3253 49.0953 81.6549 50.6601C82.0505 50.9239 82.3758 51.1612 82.3758 51.1876C82.367 51.2667 80.1253 53.2184 79.0791 54.0535C77.2857 55.4865 75.211 56.8755 73.5055 57.7986C72.8462 58.159 71.3165 58.9239 71.2637 58.9239C71.2374 58.9239 71.0527 59.003 70.8418 59.0909C69.8396 59.5568 68.3011 60.0579 67.1319 60.3217C65.8835 60.603 65.2681 60.6821 64.2132 60.6821C63.6681 60.6821 63.2198 60.6997 63.2198 60.7261C63.2198 60.7436 63.0791 61.148 62.9121 61.614L62.6044 62.4667L64.1165 62.414C66.5692 62.3349 68.3275 61.948 71.0879 60.9019C76.3626 58.8975 82.5516 54.1854 88.011 48.014C89.4264 46.4228 89.6637 46.1414 90.7538 44.7612C91.2725 44.1107 92.7231 42.2118 92.9341 41.9129C93.0571 41.737 93.2769 41.4294 93.4264 41.2272C93.9978 40.4447 94.6044 39.5129 94.6044 39.4162C94.6044 39.3546 94.2791 39.3195 93.5582 39.3195C92.5209 39.3195 92.5033 39.3195 92.3187 39.5568C92.1604 39.7766 90.6659 41.7986 90.2352 42.3876C89.7604 43.0469 87.0703 46.2997 86.3846 47.0469C85.5582 47.9612 84.9429 48.6206 84.3978 49.192L83.8176 49.8074L83.167 49.3678C81.2505 48.0755 79.1055 46.0975 77.6637 44.2865C77.5143 44.0931 77.1978 43.7063 76.978 43.425C76.4066 42.7217 75.0176 40.6206 74.6483 39.9085L74.3407 39.3195H73.2681C72.4066 39.3195 72.1868 39.3458 72.1868 39.4425Z" fill="#D3F4FA"/>
<path d="M103.835 39.6799C103.141 40.0755 101.505 41.192 101.286 41.4294C101.259 41.4557 101.101 41.5788 100.934 41.7107C100.204 42.2645 98.8857 43.548 97.8659 44.6821C96.2483 46.4931 94.8418 48.4711 93.4176 50.9414C93.1538 51.4074 92.9341 51.8118 92.9341 51.8381C92.9341 51.8645 93.4264 51.8909 94.0242 51.8909H95.1143L95.3516 51.4338C95.7209 50.7305 96.7758 49.1129 97.4527 48.2162C97.7956 47.7678 98.1121 47.3458 98.156 47.2843C98.2088 47.2052 98.3846 47.2052 98.9473 47.2843C102.754 47.8381 106.226 47.8381 110.508 47.2667C110.886 47.2228 110.947 47.2316 111.035 47.3898C111.088 47.4865 111.185 47.6184 111.246 47.6887C111.659 48.1195 113.136 50.3261 113.646 51.2755L113.98 51.8909H115.062C115.659 51.8909 116.143 51.8645 116.143 51.8381C116.143 51.6623 114.262 48.5151 113.831 47.9788C113.541 47.6096 112.978 46.8272 112.978 46.7832C112.978 46.748 113.215 46.6777 113.505 46.625C114.631 46.4052 117.022 45.5876 117.022 45.4294C117.022 45.3678 116.732 45.0865 116.389 44.8052C116.037 44.5239 115.738 44.2601 115.721 44.225C115.677 44.1283 115.237 44.137 115.132 44.225C115.026 44.3129 113.462 44.7261 112.38 44.937L111.624 45.0953L111.229 44.6469C110.596 43.9524 109.215 42.5986 108.574 42.0447C107.105 40.7788 104.996 39.4074 104.53 39.4074C104.415 39.4074 104.099 39.5305 103.835 39.6799ZM105.198 41.9041C106.262 42.5986 107.519 43.6359 108.609 44.7261L109.224 45.3326L108.969 45.403C108.556 45.5173 106.279 45.6491 104.582 45.6491C102.71 45.6491 100.055 45.5085 99.9407 45.3942C99.8791 45.3326 100.785 44.392 101.725 43.5656C102.78 42.6425 104.538 41.3942 104.626 41.4997C104.653 41.5348 104.908 41.7195 105.198 41.9041Z" fill="#D3F4FA"/>
</svg>
