<svg width="160" height="38" viewBox="0 0 160 38" fill="none" xmlns="http://www.w3.org/2000/svg">
<path d="M39.873 27.7461C39.8732 32.1425 42.4003 33.7598 45.2051 33.7598C48.8943 33.7597 51.7245 31.384 51.6992 25.9766V13.9492H56.1465L56.1719 37.2969H51.7246V33.709H51.623C48.8688 39.7229 35.4512 40.2532 35.4512 28.9834L35.4258 13.9492H39.873V27.7461ZM140.771 16.8037C146.683 11.2447 159.797 12.1541 159.798 21.1494C159.794 21.3805 159.677 34.6643 160 37.3213H156.059C155.958 36.1338 155.907 34.9463 155.907 33.7588H155.806C153.835 36.7658 151.156 37.9033 147.618 37.9033C143.272 37.9031 139.532 35.4515 139.532 30.9033C139.532 22.1858 151.207 22.8174 155.654 22.8174V21.832C155.654 19.4062 153.86 16.9043 150.069 16.9043C146.684 16.9044 145.041 18.3195 143.424 19.5576L140.771 16.8037ZM88.3389 13.3398C95.5402 13.3398 97.208 18.4688 97.2334 23.6992V37.3193H92.7861V24.3057C92.7861 20.743 92.0279 17.5088 87.7578 17.5088C83.4622 17.5088 81.794 20.4146 81.7939 24.5586V37.3193H77.3213V25.0898C77.3213 20.6426 76.6648 17.5089 72.3945 17.5088C69.1854 17.5088 66.3301 19.9346 66.3301 25.1904V37.3193H61.8828V13.9463H66.0264V17.585H66.1279C66.5828 16.1952 69.4382 13.3398 73.6328 13.3398C77.0945 13.3399 79.4447 14.8303 80.9355 17.6855C82.477 14.8304 85.5341 13.3398 88.3389 13.3398ZM5.22949 37.2969H0.807617L0.782227 13.9492H5.22949V37.2969ZM17.082 37.2969H12.6094V0H17.082V37.2969ZM29.1602 37.2969H24.6875V0H29.1602V37.2969ZM107.694 37.2959H103.247V13.9482H107.694V37.2959ZM118.787 17.5342C121.541 11.5203 134.959 10.9894 134.959 22.2588V37.2939H130.512V23.4971C130.512 19.1007 127.985 17.4835 125.181 17.4834C121.491 17.4834 118.661 19.8591 118.687 25.2666V37.2939H114.239V13.9463H118.687V17.5342H118.787ZM155.68 26.0771C151.687 26.0771 143.98 25.8752 144.005 30.5752C144.005 33.2281 145.976 34.3651 149.033 34.3652C153.96 34.3652 155.68 30.7269 155.68 27.5684V26.0771ZM2.98145 2.80273C4.62376 2.80276 5.96268 4.14191 5.96289 5.78418C5.96289 7.42663 4.62389 8.76657 2.98145 8.7666C1.33898 8.7666 0 7.42664 0 5.78418C0.000211388 4.14189 1.33911 2.80273 2.98145 2.80273Z" fill="#D3F4FA"/>
</svg>
