<svg width="160" height="53" viewBox="0 0 160 53" fill="none" xmlns="http://www.w3.org/2000/svg">
<path d="M22.6035 44.749V52.8613L15.5762 48.8174V40.7061L22.6035 44.749ZM30.3877 48.8174L23.3848 52.8613V44.749L30.3877 40.7061V48.8174ZM14.7988 40.2578V48.3701L7.78809 44.3018V36.2148L14.7988 40.2578ZM38.1689 44.3018L31.166 48.3701V40.2578L38.1689 36.2148V44.3018ZM30.002 40.0322L22.9912 44.084L15.9639 40.0322L22.9912 35.9883L30.002 40.0322ZM7.01074 35.7607V43.8555L0 39.8125L0 31.7168L7.01074 35.7607ZM45.9844 39.8125L38.9482 43.8555V35.7607L45.9844 31.7168V39.8125ZM148.692 10.2471C153.266 10.2471 156.715 11.3236 159.454 14.0547L154.562 18.9463C152.549 16.9328 149.9 17.0625 148.514 17.0625C145.783 17.0625 144.657 18.6284 144.657 20.0225C144.663 20.5778 144.889 21.1084 145.285 21.498C145.89 22.0526 146.667 22.3835 147.486 22.4355L151.342 22.9736C154.211 23.3813 156.233 24.2782 157.619 25.6152C159.323 27.2457 160 29.6502 160 32.6094C159.935 39.1314 154.334 42.6621 147.608 42.6621C142.717 42.6621 138.73 41.7652 135.502 38.4473L140.523 33.4248C142.154 35.0553 145.098 35.667 147.649 35.667C150.739 35.6669 152.223 34.6393 152.223 32.7969C152.264 32.1118 152.039 31.4375 151.595 30.9141C151 30.4217 150.262 30.1354 149.491 30.0986L145.636 29.5605C142.815 29.1529 140.662 28.2158 139.228 26.7402C137.793 25.2646 137.035 23.0631 137.035 20.332C137.035 14.5031 141.429 10.2472 148.692 10.2471ZM97.1387 18.0166C100.02 18.0166 102.791 19.1202 104.884 21.1006C106.897 23.2936 107.525 25.6257 107.525 30.3379C107.525 35.0497 106.897 37.3731 104.884 39.5742C102.791 41.5546 100.02 42.6582 97.1387 42.6582C94.2579 42.6582 91.4868 41.5545 89.3945 39.5742C87.3809 37.3812 86.7442 35.0906 86.7441 30.3379C86.7441 25.585 87.3727 23.3018 89.3945 21.1006C91.4868 19.1204 94.258 18.0166 97.1387 18.0166ZM86.3594 42.3965H78.1582L76.6748 37.6436H66.8506L65.2861 42.3965H57.0684L68.6934 10.4795H74.7422L86.3594 42.3965ZM123.632 10.4795C130.7 10.4795 134.516 15.4939 134.516 20.7441C134.515 25.9941 130.7 30.9833 123.624 30.9834H118.83V42.3965H110.987V10.4795H123.632ZM22.1953 35.5342L15.1846 39.5781L8.18164 35.5342L15.1846 31.4912L22.1953 35.5342ZM37.7871 35.5342L30.7764 39.5781L23.7646 35.5342L30.7764 31.4912L37.7871 35.5342ZM97.1309 24.6514C96.4185 24.6514 95.7255 24.8845 95.1582 25.3154C94.2125 26.253 94.082 27.9574 94.082 30.3379C94.082 32.7183 94.2207 34.4137 95.1582 35.3594C95.7255 35.7904 96.4184 36.0244 97.1309 36.0244C97.8434 36.0244 98.5362 35.7904 99.1035 35.3594C100.049 34.4218 100.18 32.7182 100.18 30.3379C100.18 27.9574 100.041 26.253 99.0957 25.3154H99.1035C98.5362 24.8844 97.8433 24.6514 97.1309 24.6514ZM30.3809 30.8232L23.3779 34.8662V26.7793L30.3809 22.7275V30.8232ZM38.1689 26.7793V34.8662L31.166 30.8232V22.7275L38.1689 26.7793ZM7.01074 26.7725L7.01074 34.8604L0 30.8164L0 22.7207L7.01074 26.7725ZM14.7988 30.8164L7.78809 34.8604L7.78809 26.7725L14.7988 22.7207V30.8164ZM22.5811 26.7725V34.8604L15.5703 30.8164V22.7207L22.5811 26.7725ZM45.9844 30.8164L38.9482 34.8604V26.7725L45.9844 22.7207V30.8164ZM69.0518 31.0977H74.6123L71.9219 22.5859L69.0518 31.0977ZM30.002 22.0527L22.9912 26.0967L15.9639 22.0527L22.9912 17.9844L30.002 22.0527ZM7.01074 17.7559V25.8682L0 21.8242L0 13.7129L7.01074 17.7559ZM14.7988 21.8242L7.78809 25.8682V17.7559L14.7988 13.7129V21.8242ZM38.1758 17.7559V25.8682L31.1729 21.8242V13.7129L38.1758 17.7559ZM45.9775 21.8242L38.9424 25.8682V17.7559L45.9775 13.7129V21.8242ZM124.646 17.6152C124.199 17.4834 123.728 17.4498 123.266 17.5156V17.4912H118.83V23.9717H123.266C123.728 24.0375 124.199 24.004 124.646 23.8721C125.095 23.74 125.509 23.5131 125.862 23.207C126.215 22.901 126.498 22.5225 126.691 22.0977C126.885 21.6728 126.986 21.2111 126.986 20.7441C126.986 20.277 126.885 19.8146 126.691 19.3896C126.498 18.9649 126.215 18.5863 125.862 18.2803C125.509 17.9742 125.095 17.7472 124.646 17.6152ZM22.5977 17.3105L15.5703 21.3789V13.2666L22.5977 9.21484V17.3105ZM30.3877 13.2666V21.3789L23.3848 17.3105V9.21484L30.3877 13.2666ZM14.4072 13.0391L7.39648 17.083L0.393555 13.0391L7.39648 8.99512L14.4072 13.0391ZM45.5762 13.0391L38.5645 17.083L31.5537 13.0391L38.5645 8.99512L45.5762 13.0391ZM22.1895 8.5498L15.1777 12.5928L8.1748 8.5498L15.1777 4.49805L22.1895 8.5498ZM37.7871 8.5498L30.7764 12.5928L23.7646 8.5498L30.7764 4.49805L37.7871 8.5498ZM30.002 4.04395L22.9912 8.0957L15.9639 4.04395L22.9912 0L30.002 4.04395Z" fill="#D3F4FA"/>
</svg>
