<svg preserveAspectRatio="none" width="100%" height="100%" overflow="visible" style="display: block;" viewBox="0 0 58 87" fill="none" xmlns="http://www.w3.org/2000/svg">
<g id="Group 6953">
<path id="Subtract" d="M57.3773 12.7216V73.7836L46.1273 86.5052L11.2502 86.5081L0.000158459 73.7865L0.000158459 12.7245L11.2502 0.00291312L46.1273 0L57.3773 12.7216Z" fill="url(#paint0_linear_6432_103)"/>
<path id="Subtract_2" d="M28.6837 0.00231887V41.1277H57.3722V12.7254L46.1222 0.00377543L28.6837 0.00231887Z" fill="url(#paint1_linear_6432_103)"/>
<path id="Subtract_3" d="M28.6887 0V41.1254H0.000158459L0.000158459 12.7231L11.2502 0.00145656L28.6887 0Z" fill="url(#paint2_linear_6432_103)"/>
<path id="Subtract_4" d="M33.1161 15.6831V29.6973L31.3661 32.617L25.9408 32.6177L24.1908 29.698V15.6838L25.9408 12.7641L31.3661 12.7634L33.1161 15.6831Z" fill="url(#paint3_linear_6432_103)"/>
</g>
<defs>
<linearGradient id="paint0_linear_6432_103" x1="26.5742" y1="41.6832" x2="29.3263" y2="111.326" gradientUnits="userSpaceOnUse">
<stop stop-color="#94C7D6"/>
<stop offset="1" stop-color="#1F4662"/>
</linearGradient>
<linearGradient id="paint1_linear_6432_103" x1="40.6707" y1="-33.8991" x2="43.9006" y2="48.9961" gradientUnits="userSpaceOnUse">
<stop stop-color="#B8E5ED"/>
<stop offset="1" stop-color="#265374"/>
</linearGradient>
<linearGradient id="paint2_linear_6432_103" x1="8.63585" y1="-6.64351" x2="1.5007" y2="62.2768" gradientUnits="userSpaceOnUse">
<stop stop-color="#BEE4EC"/>
<stop offset="1" stop-color="#5190AE"/>
</linearGradient>
<linearGradient id="paint3_linear_6432_103" x1="28.8297" y1="8.99803" x2="30.3954" y2="33.2013" gradientUnits="userSpaceOnUse">
<stop stop-color="#407898"/>
<stop offset="1" stop-color="#113B5B"/>
</linearGradient>
</defs>
</svg>
