<svg width="160" height="56" viewBox="0 0 160 56" fill="none" xmlns="http://www.w3.org/2000/svg">
<g clip-path="url(#clip0_5678_2944)">
<path d="M11.5015 34.9867C8.06928 34.9867 5.33084 34.1631 3.28614 32.516C1.24143 30.8688 0.182563 28.5882 0.0365126 25.6424L0 24.0269L0.0365126 22.4115C0.182563 19.4973 1.24143 17.2167 3.28614 15.5695C5.33084 13.9224 8.06928 13.0988 11.5015 13.0988C13.9478 13.0988 16.029 13.4789 17.7086 14.2391C19.4247 14.9994 20.6661 15.9179 21.5059 17.0266C22.3457 18.1036 22.7838 19.1489 22.8569 20.1625C22.8934 20.4475 22.7838 20.6693 22.5283 20.8593C22.3092 21.0494 22.0536 21.1444 21.725 21.1444H17.5625C17.2339 21.1444 16.9784 21.0811 16.8324 20.9861C16.6862 20.8593 16.5037 20.606 16.3576 20.2892C15.883 19.2755 15.2622 18.5153 14.4955 18.0719C13.7653 17.5968 12.7794 17.3751 11.611 17.3751C10.0045 17.3751 8.76302 17.8185 7.88673 18.6737C7.01042 19.529 6.53575 20.8593 6.49924 22.6332L6.46273 24.1219L6.49924 25.4523C6.64529 28.9683 8.36139 30.7105 11.5745 30.7105C12.7794 30.7105 13.7653 30.4887 14.532 30.0769C15.2622 29.6019 15.883 28.8733 16.3576 27.7964C16.4672 27.5112 16.6133 27.2895 16.7958 27.1628C16.9784 27.0361 17.2339 26.9728 17.599 26.9728H21.7615C22.0901 26.9728 22.3457 27.0677 22.5647 27.2578C22.8204 27.4479 22.9299 27.6696 22.8934 27.9547C22.8204 28.905 22.3822 29.9186 21.579 31.0273C20.7756 32.1042 19.5342 33.0545 17.8547 33.8147C16.1385 34.5749 14.0208 34.9867 11.5015 34.9867ZM25.3763 34.5749C25.0476 34.5749 24.7921 34.4799 24.573 34.2898C24.3539 34.0998 24.2444 33.878 24.2444 33.593V6.76368C24.2444 6.4786 24.3539 6.2252 24.573 6.06682C24.7921 5.87676 25.0476 5.78174 25.3763 5.78174H29.6117C29.9403 5.78174 30.2324 5.87676 30.415 6.06682C30.6341 6.2252 30.7437 6.44693 30.7437 6.76368V16.013C32.6057 14.0807 35.1251 13.0988 38.2652 13.0988C41.1497 13.0988 43.4135 13.9224 45.1296 15.5695C46.8456 17.185 47.6855 19.4023 47.6855 22.2214V33.6247C47.6855 33.9097 47.5759 34.1315 47.3568 34.3215C47.1742 34.5116 46.9187 34.6066 46.5536 34.6066H42.3546C42.026 34.6066 41.7339 34.5116 41.5148 34.3215C41.2957 34.1315 41.1862 33.9097 41.1862 33.6247V22.4431C41.1862 20.8593 40.748 19.6556 39.8353 18.8005C38.9589 17.9135 37.7175 17.47 36.038 17.47C34.4314 17.47 33.1534 17.9135 32.2041 18.8005C31.2548 19.6873 30.7437 20.9227 30.7437 22.4431V33.593C30.7437 33.878 30.6341 34.0998 30.415 34.2898C30.2324 34.4799 29.9769 34.5749 29.6117 34.5749H25.3763ZM60.684 34.9867C57.1787 34.9867 54.4038 34.1315 52.359 32.3893C50.3509 30.6471 49.2555 28.2081 49.1459 25.0089L49.1095 23.9953C49.1095 20.606 50.1318 17.9452 52.14 16.013C54.1847 14.0807 57.0327 13.0988 60.6475 13.0988C64.3717 13.0988 67.2197 14.0807 69.1914 16.013C71.1996 17.9452 72.2219 20.5426 72.2219 23.8052V24.6604C72.2219 24.9455 72.1124 25.1673 71.8933 25.3573C71.6742 25.5474 71.3822 25.6424 71.0535 25.6424H55.5356V25.9591C55.6087 27.4795 56.0833 28.7149 56.9232 29.7285C57.836 30.7105 59.0409 31.1856 60.6109 31.1856C62.4 31.1856 63.824 30.5521 64.956 29.3167C65.248 29.0317 65.4671 28.8416 65.6131 28.7783C65.7592 28.6832 66.0513 28.6515 66.4164 28.6515H70.5423C70.8345 28.6515 71.0535 28.7149 71.2361 28.8416C71.4552 28.9683 71.5647 29.1584 71.5647 29.4118C71.5647 30.0453 71.1265 30.8372 70.2137 31.7241C69.3374 32.5794 68.096 33.3396 66.4164 34.0048C64.7734 34.6699 62.8382 34.9867 60.684 34.9867ZM65.7592 22.1581V22.063C65.7592 20.4792 65.2846 19.2122 64.3717 18.2619C63.4589 17.28 62.2175 16.8049 60.6475 16.8049C59.0409 16.8049 57.7995 17.28 56.9232 18.2619C56.0104 19.2122 55.5722 20.4792 55.5722 22.063V22.1581H65.7592ZM84.1981 34.9867C80.7659 34.9867 78.0274 34.1631 75.9828 32.516C73.9745 30.8688 72.8791 28.5882 72.7696 25.674L72.7331 24.0586L72.7696 22.4431C72.8791 19.529 73.9745 17.2483 75.9828 15.6012C78.0274 13.9541 80.7659 13.1305 84.1981 13.1305C86.6444 13.1305 88.7253 13.5106 90.4053 14.2708C92.1213 15.031 93.3626 15.9496 94.2022 17.0582C95.0426 18.1352 95.4804 19.1806 95.5534 20.1942C95.5903 20.4792 95.4804 20.701 95.2246 20.891C95.0057 21.0811 94.7499 21.1761 94.422 21.1761H90.2593C89.9305 21.1761 89.6747 21.1127 89.5288 21.0177C89.3829 20.891 89.2 20.6376 89.0541 20.3209C88.5793 19.3072 87.9587 18.547 87.1921 18.1036C86.4618 17.6284 85.476 17.4067 84.3076 17.4067C82.701 17.4067 81.4596 17.8501 80.5833 18.7054C79.707 19.5607 79.2323 20.891 79.1959 22.6648L79.1593 24.1536L79.1959 25.484C79.3784 29 81.0945 30.7422 84.3441 30.7422C85.549 30.7422 86.5349 30.5204 87.3016 30.1086C88.0317 29.6335 88.6523 28.905 89.127 27.828C89.2369 27.5429 89.3829 27.3212 89.5657 27.1945C89.7477 27.0677 90.0035 27.0045 90.3684 27.0045H94.531C94.8598 27.0045 95.1156 27.0994 95.3345 27.2895C95.5903 27.4795 95.6993 27.7013 95.6633 27.9864C95.5903 28.9366 95.1516 29.9503 94.3481 31.0589C93.5455 32.1359 92.3042 33.0861 90.6242 33.8464C88.7982 34.5749 86.7175 34.9867 84.1981 34.9867ZM98.073 34.5749C97.7442 34.5749 97.4883 34.4799 97.2694 34.2898C97.0505 34.0998 96.9407 33.878 96.9407 33.593V6.76368C96.9407 6.4786 97.0505 6.2252 97.2694 6.06682C97.4883 5.87676 97.7442 5.78174 98.073 5.78174H101.943C102.272 5.78174 102.527 5.87676 102.746 6.06682C102.965 6.25687 103.075 6.4786 103.075 6.76368V20.6376L110.816 14.1758C110.926 14.1124 111.035 14.0174 111.254 13.8907C111.473 13.7323 111.692 13.6057 111.874 13.574C112.057 13.5106 112.313 13.4789 112.568 13.4789H117.023C117.351 13.4789 117.571 13.574 117.753 13.7323C117.936 13.8907 118.045 14.1124 118.045 14.3659C118.045 14.6193 117.899 14.841 117.571 15.0944L108.04 22.9183L118.739 32.9595C119.031 33.2129 119.177 33.4346 119.177 33.6563C119.177 33.9414 119.067 34.1314 118.885 34.2898C118.702 34.4482 118.447 34.5432 118.192 34.5432H113.663C113.226 34.5432 112.897 34.5115 112.678 34.4166C112.495 34.3215 112.24 34.1315 111.947 33.8464L103.111 25.7057V33.5613C103.111 33.8464 103.002 34.0681 102.783 34.2581C102.564 34.4482 102.309 34.5432 101.98 34.5432H98.073V34.5749Z" fill="#D3F4FA"/>
<path d="M140.281 26.6244L133.344 21.2713C133.161 21.1445 133.052 20.9228 133.052 20.7327V15.0945C133.052 14.6827 133.417 14.3659 133.892 14.3659H134.695C134.768 14.3659 134.877 14.3659 134.95 14.3659C136.995 14.3659 143.896 14.3026 143.896 9.64627C143.896 5.65513 136.667 5.78182 131.08 5.90853C130.35 5.90853 129.656 5.9402 128.999 5.9402C128.525 5.9402 128.159 6.25696 128.159 6.66875C128.159 7.42896 128.159 8.63267 128.159 9.86797C128.159 10.9766 128.159 12.0536 128.159 12.7821V29.4119C128.159 29.6019 128.086 29.792 127.904 29.9503L122.792 34.3849C122.244 34.8601 121.332 34.5117 121.332 33.8465V0.777073C121.332 0.365289 121.697 0.0485319 122.171 0.0485319H124.727C125.822 0.0485319 126.882 0.0485319 127.977 0.0168563C128.05 0.0168563 128.159 0.0168563 128.232 0.0168563C136.265 -0.046495 143.823 -0.109847 147.949 3.40615C149.811 4.98994 150.724 7.08053 150.724 9.64627C150.724 13.9858 147.657 17.3751 142.618 19.0856C142.034 19.2757 141.851 19.9725 142.326 20.3209L145.137 22.4749C145.174 22.5066 145.247 22.5382 145.283 22.5699L151.418 27.3529C151.454 27.3846 151.454 27.4163 151.491 27.4163L159.086 33.5931C159.45 33.8782 159.45 34.3216 159.159 34.6384L155.727 37.9643C155.398 38.2811 154.887 38.2811 154.521 38.0277L146.525 31.5658" fill="#D3F4FA"/>
<path d="M151.381 25.7056C151.637 25.9273 152.039 25.8956 152.294 25.7056L159.414 18.9587C159.742 18.6736 159.742 18.1985 159.414 17.9134L155.654 14.9042C155.325 14.6192 154.777 14.6192 154.448 14.9042L147.328 21.6512C147.073 21.8729 147.073 22.253 147.328 22.4747L151.381 25.7056Z" fill="#D3F4FA"/>
<path d="M140.391 28.3984C140.135 28.1766 139.734 28.2083 139.478 28.4301L118.593 46.4852C118.228 46.8019 117.643 46.7702 117.351 46.4218L110.487 38.5979C110.341 38.4396 110.085 38.3445 109.829 38.3445H103.148C102.418 38.3445 102.016 39.0731 102.491 39.5482L116.913 55.1643C117.242 55.4811 117.826 55.5128 118.155 55.2277L144.517 32.4529C144.773 32.2311 144.773 31.8193 144.48 31.5976L140.391 28.3984Z" fill="#D3F4FA"/>
</g>
<defs>
<clipPath id="clip0_5678_2944">
<rect width="160" height="56" fill="white"/>
</clipPath>
</defs>
</svg>
