<svg width="160" height="30" viewBox="0 0 160 30" fill="none" xmlns="http://www.w3.org/2000/svg">
<g clip-path="url(#clip0_5741_1121)">
<mask id="mask0_5741_1121" style="mask-type:luminance" maskUnits="userSpaceOnUse" x="0" y="0" width="160" height="30">
<path d="M160 0H0V30H160V0Z" fill="white"/>
</mask>
<g mask="url(#mask0_5741_1121)">
<path d="M94.8889 2.52979H100.78V16.6329H100.905L112.287 2.52979H119.7L99.5567 27.4411H94.8889V2.52979Z" fill="#D3F4FA"/>
<path d="M60.542 2.48047L53.7027 17.9565H53.6029L49.7589 2.48047H42.9195L37.9773 17.9565H37.8774L32.4609 2.48047H26.6699C29.9898 5.70047 31.8119 10.0437 31.8119 14.9111C31.8119 16.6834 31.6372 18.0314 31.1629 19.6289L34.0584 27.3669H40.9975L46.0148 11.2668H46.1145L50.0085 27.3669H56.9227L67.6559 2.48047C67.6309 2.48047 60.542 2.48047 60.542 2.48047Z" fill="#D3F4FA"/>
<path d="M122.22 17.6564C122.495 19.2789 124.816 22.7735 129.085 22.7735C131.73 22.7735 133.703 21.6502 134.826 19.5785H141.116C139.668 24.0715 134.975 28.24 129.085 28.24C121.497 28.24 115.93 22.3241 115.93 15.0355C115.93 7.99641 121.147 1.65625 129.035 1.65625C137.198 1.65625 141.915 8.34586 141.915 14.6361C141.915 15.8092 141.74 16.8328 141.565 17.6315C141.565 17.6564 122.22 17.6564 122.22 17.6564ZM135.799 12.8639C135.125 8.87005 132.255 7.17269 129.06 7.17269C126.639 7.17269 123.144 8.24602 122.021 12.8639H135.799Z" fill="#D3F4FA"/>
<path d="M153.846 9.31931C153.446 7.34736 152.099 7.17264 151.475 7.17264C150.002 7.17264 149.179 8.2959 149.179 9.31931C149.179 10.7671 150.201 11.0666 153.396 12.09C156.492 13.0385 159.936 14.5113 159.936 19.5285C159.936 25.1448 154.92 28.24 150.676 28.24C148.205 28.24 144.586 27.3913 142.664 24.97C141.141 23.073 140.916 21.101 140.766 19.5784H146.882C147.156 20.7016 148.679 22.7734 151.15 22.7734C153.072 22.7734 154.27 21.3008 154.27 20.2524C154.27 18.4053 153.072 17.9559 148.804 16.5331C145.984 15.5846 143.237 13.4879 143.237 9.39419C143.237 4.5517 147.581 1.68115 151.575 1.68115C155.294 1.68115 159.462 4.37698 159.687 9.31931H153.846Z" fill="#D3F4FA"/>
<path d="M92.4667 27.4412H87.0004V24.346C85.1032 26.5925 81.434 28.24 78.289 28.24C71.874 28.24 66.1829 23.123 66.1829 14.8109C66.1829 7.17269 71.7491 1.65625 78.6634 1.65625C83.7305 1.65625 86.7507 5.30059 86.9255 5.65005H87.0252V2.52989H92.4917L92.4667 27.4412ZM79.537 7.17269C74.6446 7.17269 72.1236 11.3911 72.1236 15.1104C72.1236 19.3289 75.2686 22.7735 79.537 22.7735C83.6555 22.7735 86.8006 19.5535 86.8006 14.9106C86.8256 9.76866 83.0815 7.17269 79.537 7.17269Z" fill="#D3F4FA"/>
<path fill-rule="evenodd" clip-rule="evenodd" d="M14.8879 7.57207V0.208496C12.1921 0.208496 9.87074 0.832529 7.5244 2.20539C0.510362 6.27408 -1.91086 15.2601 2.15779 22.2993L8.5478 18.6299C7.92378 17.5566 7.54937 16.2835 7.54937 14.9356C7.54937 10.867 10.8442 7.57207 14.8879 7.57207Z" fill="#D3F4FA"/>
<path fill-rule="evenodd" clip-rule="evenodd" d="M2.1582 22.2992C2.50767 22.8734 2.88208 23.4724 3.30642 23.9966L9.09737 19.4536C8.89768 19.1791 8.69799 18.9045 8.52327 18.605L2.1582 22.2992Z" fill="#D3F4FA"/>
<path fill-rule="evenodd" clip-rule="evenodd" d="M9.12156 19.4785L3.30566 23.9965C4.12938 25.0699 4.97805 25.8686 6.05136 26.6924L10.4944 20.8015C9.97023 20.427 9.52094 19.9778 9.12156 19.4785Z" fill="#D3F4FA"/>
<path d="M6.05225 26.6925C7.67471 27.9157 9.14741 28.6145 11.0944 29.1388L13.0164 22.0498C12.0928 21.8002 11.2441 21.3758 10.4953 20.8267L6.05225 26.6925Z" fill="#D3F4FA"/>
<path d="M13.0153 22.0493L11.1182 29.1633C12.4161 29.5128 13.5893 29.6626 14.9373 29.6626V22.2989C14.2383 22.2989 13.6143 22.1992 13.0153 22.0493Z" fill="#D3F4FA"/>
<path d="M14.9133 29.6628C15.9367 29.6628 16.9851 29.5629 17.9835 29.3383L16.4608 22.1494C15.9617 22.2493 15.4625 22.3242 14.9382 22.3242L14.9133 29.6628Z" fill="#D3F4FA"/>
<path d="M21.902 17.2075C21.1033 19.6788 19.0315 21.5758 16.4355 22.1249L17.9582 29.3138C23.2499 28.1905 27.2188 24.5961 28.8912 19.454L21.902 17.2075Z" fill="#D3F4FA"/>
<path d="M29.6147 14.9355H22.2512C22.2512 15.7343 22.1265 16.4832 21.9019 17.207L28.8909 19.4785C29.415 17.856 29.6147 16.608 29.6147 14.9355Z" fill="#D3F4FA"/>
<path d="M22.252 14.9359H29.6155C29.6155 9.51922 26.9448 4.90138 22.252 2.20557L18.5828 8.57069C20.7794 9.84372 22.252 12.215 22.252 14.9359Z" fill="#D3F4FA"/>
<path d="M22.2518 2.18024C21.0787 1.50627 20.0053 1.05698 18.7074 0.70752L16.8103 7.82149C17.4344 7.99621 18.0334 8.24582 18.5826 8.54536L22.2518 2.18024Z" fill="#D3F4FA"/>
<path d="M16.8097 7.82171L18.7067 0.707724C17.4087 0.358265 16.2356 0.208496 14.8877 0.208496V7.57209C15.5616 7.57209 16.1856 7.67194 16.8097 7.82171Z" fill="#D3F4FA"/>
<path opacity="0.4" d="M14.9134 7.57213C18.982 7.57213 22.2769 10.867 22.2769 14.9358C22.2769 19.0044 18.957 22.2993 14.9134 22.2993C10.8697 22.2993 7.54989 19.0044 7.54989 14.9358C7.54989 10.867 10.8447 7.57213 14.9134 7.57213ZM14.9134 3.90283C8.82289 3.90283 3.88062 8.84516 3.88062 14.9358C3.88062 21.0263 8.82289 25.9686 14.9134 25.9686C21.0039 25.9686 25.9461 21.0263 25.9461 14.9358C25.9461 8.84516 21.0039 3.90283 14.9134 3.90283Z" fill="#D3F4FA"/>
</g>
</g>
<defs>
<clipPath id="clip0_5741_1121">
<rect width="160" height="30" fill="white"/>
</clipPath>
</defs>
</svg>
