<svg preserveAspectRatio="none" width="100%" height="100%" overflow="visible" style="display: block;" viewBox="0 0 24 24" fill="none" xmlns="http://www.w3.org/2000/svg">
<g id="ion:hammer-sharp">
<path id="Vector" d="M13.3816 12.0058L11.3006 10.1179C11.258 10.079 11.2081 10.049 11.1538 10.0295C11.0995 10.01 11.042 10.0014 10.9844 10.0042C10.9268 10.007 10.8703 10.0211 10.8182 10.0458C10.766 10.0705 10.7193 10.1052 10.6806 10.148L3.3586 17.76C3.318 17.8022 3.28626 17.8521 3.26527 17.9068C3.24427 17.9614 3.23444 18.0198 3.23636 18.0783C3.23829 18.1368 3.25192 18.1943 3.27645 18.2475C3.30099 18.3007 3.33593 18.3484 3.37921 18.3878L5.90537 20.688C5.94874 20.7275 5.99958 20.7579 6.0549 20.7773C6.11021 20.7968 6.16887 20.8049 6.22739 20.8013C6.28592 20.7977 6.34312 20.7824 6.39561 20.7562C6.4481 20.7301 6.49481 20.6937 6.53297 20.6492L13.411 12.6254C13.4498 12.5829 13.4798 12.533 13.4994 12.4788C13.5189 12.4246 13.5275 12.3671 13.5248 12.3095C13.5221 12.252 13.508 12.1955 13.4835 12.1434C13.4589 12.0913 13.4243 12.0445 13.3816 12.0058ZM20.7577 9.54318L19.0799 8.03156C19.0031 7.96214 18.9134 7.90862 18.8159 7.87408C18.7183 7.83954 18.6149 7.82467 18.5116 7.83031C18.3441 7.83863 18.1835 7.89937 18.0524 8.00394C18.0517 7.98826 18.0531 7.97284 18.0536 7.95929C18.0585 7.72144 18.0666 7.36208 17.8193 7.04874C17.5259 6.691 17.2066 6.35535 16.8639 6.04453C16.863 6.04351 16.862 6.04258 16.8609 6.04175C16.3519 5.58686 15.2509 4.73703 13.5992 4.15521C12.9725 3.93316 12.3083 3.83588 11.6442 3.86886C10.4933 3.92474 9.6432 4.48656 9.323 4.81063C9.00758 5.1278 8.81082 5.54379 8.76571 5.98881L9.36662 6.31898C9.36662 6.31898 9.65702 6.23177 9.86608 6.1708C10.0848 6.11293 10.3108 6.08778 10.5369 6.0962C11.0199 6.11259 11.6004 6.32384 11.8617 6.51038C12.305 6.83284 12.5328 7.28531 12.6004 7.97658C12.6151 8.13049 12.291 8.77205 11.7898 9.47229C11.7481 9.53051 11.7293 9.60202 11.7368 9.67322C11.7444 9.74442 11.7779 9.81036 11.8309 9.85852L13.5658 11.4328C13.6214 11.4828 13.694 11.5095 13.7687 11.5076C13.8434 11.5057 13.9145 11.4752 13.9674 11.4224C14.3881 10.9999 15.0298 10.3473 15.1776 10.2455C15.4497 10.0593 15.6487 10.0164 15.7035 10.0079C15.8457 9.987 15.9909 10.0103 16.1194 10.0747C16.1203 10.0809 16.12 10.0873 16.1183 10.0933C16.1167 10.0994 16.1138 10.105 16.1098 10.1099L16.0465 10.1762L16.036 10.187C15.9662 10.2636 15.9123 10.3533 15.8773 10.4508C15.8423 10.5484 15.827 10.6519 15.8322 10.7554C15.8374 10.859 15.863 10.9604 15.9076 11.054C15.9522 11.1476 16.0148 11.2314 16.0919 11.3006L17.7721 12.8158C17.8294 12.8675 17.9048 12.8944 17.9819 12.8907C18.059 12.8869 18.1315 12.8528 18.1835 12.7958L20.7756 9.95757C20.8018 9.92926 20.8221 9.89604 20.8354 9.85984C20.8487 9.82364 20.8547 9.78516 20.853 9.74664C20.8513 9.70811 20.842 9.6703 20.8257 9.63538C20.8093 9.60046 20.7862 9.56912 20.7577 9.54318Z" fill="var(--fill-0, white)"/>
</g>
</svg>
