<svg width="223" height="125" viewBox="0 0 223 125" fill="none" xmlns="http://www.w3.org/2000/svg">
<g filter="url(#filter0_n_5606_2428)">
<path d="M88.1973 1.97631L223 0L220.779 88.9339L88.1973 87.4061V1.97631Z" fill="#BB8E71"/>
<path d="M88.1973 1.97631L223 0L220.779 88.9339L88.1973 87.4061V1.97631Z" fill="url(#paint0_linear_5606_2428)"/>
<path d="M88.1973 1.97631L223 0L220.779 88.9339L88.1973 87.4061V1.97631Z" fill="url(#paint1_linear_5606_2428)"/>
<path d="M95.4688 8.89611L214.575 7.41113L213.499 81.5227L95.4688 78.5582V8.89611Z" fill="white"/>
<path d="M98.606 60.7706L115.769 62.8409L126.828 55.8311L133.767 47.9258L134.789 34.5857L101.38 42.1303L98.606 60.7706Z" fill="url(#paint2_linear_5606_2428)"/>
<path d="M67.4531 58.8281C67.4531 56.0796 69.6812 53.8516 72.4297 53.8516C75.1781 53.8516 77.4062 56.0796 77.4062 58.8281V111.208C77.4062 113.956 75.1781 116.184 72.4297 116.184C69.6812 116.184 67.4531 113.956 67.4531 111.208V58.8281Z" fill="url(#paint3_linear_5606_2428)"/>
<path d="M50.5996 58.8079C50.5996 56.0706 52.8186 53.8516 55.556 53.8516C58.2933 53.8516 60.5123 56.0706 60.5123 58.8079V111.228C60.5123 113.965 58.2933 116.184 55.556 116.184C52.8186 116.184 50.5996 113.965 50.5996 111.228V58.8079Z" fill="url(#paint4_linear_5606_2428)"/>
<path d="M21.9443 47.7847L11.0811 39.4966L0 41.9937L1.97559 53.853L12.458 55.811L5.5459 58.603C5.52891 58.635 0.523712 69.5642 0.496094 69.6245L12.8516 73.0718L23.2939 62.9673L62.9355 84.4849L102.505 78.062L114.399 50.394L102.505 23.7134L51.458 16.7964L21.9443 47.7847Z" fill="#CBEBF3"/>
<path d="M21.9443 47.7847L11.0811 39.4966L0 41.9937L1.97559 53.853L12.458 55.811L5.5459 58.603C5.52891 58.635 0.523712 69.5642 0.496094 69.6245L12.8516 73.0718L23.2939 62.9673L62.9355 84.4849L102.505 78.062L114.399 50.394L102.505 23.7134L51.458 16.7964L21.9443 47.7847Z" fill="url(#paint5_linear_5606_2428)"/>
<ellipse cx="2.478" cy="2.47038" rx="2.478" ry="2.47038" transform="matrix(-1 0 0 1 77.7266 41.9951)" fill="#0B273E"/>
<ellipse cx="2.478" cy="2.47038" rx="2.478" ry="2.47038" transform="matrix(-1 0 0 1 102.507 41.9951)" fill="#0B273E"/>
<ellipse cx="2.478" cy="2.47038" rx="2.478" ry="2.47038" transform="matrix(-1 0 0 1 102.081 60.2759)" fill="#0B273E"/>
<path d="M94.5771 50.8887C94.5771 50.8887 93.5859 55.8294 88.63 55.8294C83.674 55.8294 82.6828 50.8887 82.6828 50.8887" stroke="#0B273E" stroke-width="3"/>
<path d="M106.047 75.1005L104.561 68.6778L100.1 63.243" stroke="#0B273E" stroke-width="3"/>
<path d="M60.5127 103.261L50.6007 102.272V119.056C50.6007 121.793 52.8196 124.012 55.5567 124.012C58.2938 124.012 60.5127 121.793 60.5127 119.056V103.261Z" fill="white"/>
<path d="M77.3633 101.778L67.4513 103.261V119.056C67.4513 121.793 69.6702 124.012 72.4073 124.012C75.1444 124.012 77.3633 121.793 77.3633 119.056V101.778Z" fill="white"/>
<path d="M66.8869 115.119L65.8945 125H92.6569L86.6412 118.083L66.8869 115.119Z" fill="#BB8E71"/>
<path d="M66.8869 115.119L65.8945 125H92.6569L86.6412 118.083L66.8869 115.119Z" fill="url(#paint6_linear_5606_2428)"/>
<path d="M66.8869 115.119L65.8945 125H92.6569L86.6412 118.083L66.8869 115.119Z" fill="url(#paint7_linear_5606_2428)"/>
<path d="M50.0356 115.119L48.5488 125H76.798L69.8596 118.083L50.0356 115.119Z" fill="#BB8E71"/>
<path d="M50.0356 115.119L48.5488 125H76.798L69.8596 118.083L50.0356 115.119Z" fill="url(#paint8_linear_5606_2428)"/>
<path d="M46.8761 69.4498L66.1053 77.3467L84.4018 75.8514L62.459 47.7802L51.8482 43.0343L41.4726 51.2383L46.8761 69.4498Z" fill="url(#paint9_linear_5606_2428)"/>
<path d="M82.25 76.5742H127.845L123.686 124.994H84.728L82.25 76.5742Z" fill="#BB8E71"/>
<path d="M82.25 76.5742H127.845L123.686 124.994H84.728L82.25 76.5742Z" fill="url(#paint10_linear_5606_2428)"/>
<path d="M82.25 76.5742H127.845L123.686 124.994H84.728L82.25 76.5742Z" fill="url(#paint11_linear_5606_2428)"/>
<path d="M77.2939 71.6333L133.792 73.1233L132.305 82.0166L78.7807 83.4911L77.2939 71.6333Z" fill="#BB8E71"/>
<path d="M77.2939 71.6333L133.792 73.1233L132.305 82.0166L78.7807 83.4911L77.2939 71.6333Z" fill="url(#paint12_linear_5606_2428)"/>
<path d="M77.2939 71.6333L133.792 73.1233L132.305 82.0166L78.7807 83.4911L77.2939 71.6333Z" fill="url(#paint13_linear_5606_2428)"/>
</g>
<defs>
<filter id="filter0_n_5606_2428" x="0" y="0" width="223" height="125" filterUnits="userSpaceOnUse" color-interpolation-filters="sRGB">
<feFlood flood-opacity="0" result="BackgroundImageFix"/>
<feBlend mode="normal" in="SourceGraphic" in2="BackgroundImageFix" result="shape"/>
<feTurbulence type="fractalNoise" baseFrequency="2 2" stitchTiles="stitch" numOctaves="3" result="noise" seed="3912" />
<feComponentTransfer in="noise" result="coloredNoise1">
<feFuncR type="linear" slope="2" intercept="-0.5" />
<feFuncG type="linear" slope="2" intercept="-0.5" />
<feFuncB type="linear" slope="2" intercept="-0.5" />
<feFuncA type="discrete" tableValues="1 1 1 1 1 1 1 1 1 1 1 1 1 1 1 1 1 1 1 1 1 1 1 1 1 1 1 1 1 1 1 1 1 1 1 1 1 1 1 1 1 1 1 1 1 1 1 1 1 1 1 0 0 0 0 0 0 0 0 0 0 0 0 0 0 0 0 0 0 0 0 0 0 0 0 0 0 0 0 0 0 0 0 0 0 0 0 0 0 0 0 0 0 0 0 0 0 0 0 0 "/>
</feComponentTransfer>
<feComposite operator="in" in2="shape" in="coloredNoise1" result="noise1Clipped" />
<feComponentTransfer in="noise1Clipped" result="color1">
<feFuncA type="table" tableValues="0 0.15" />
</feComponentTransfer>
<feMerge result="effect1_noise_5606_2428">
<feMergeNode in="shape" />
<feMergeNode in="color1" />
</feMerge>
</filter>
<linearGradient id="paint0_linear_5606_2428" x1="107.03" y1="-3.45854" x2="208.795" y2="103.575" gradientUnits="userSpaceOnUse">
<stop stop-color="#BB8E71"/>
<stop offset="1" stop-color="#956C51"/>
</linearGradient>
<linearGradient id="paint1_linear_5606_2428" x1="155.599" y1="2.50518" x2="155.599" y2="80.1657" gradientUnits="userSpaceOnUse">
<stop stop-color="#C9916C"/>
<stop offset="1" stop-color="#9B6A4A"/>
</linearGradient>
<linearGradient id="paint2_linear_5606_2428" x1="118.933" y1="91.4039" x2="88.9993" y2="54.212" gradientUnits="userSpaceOnUse">
<stop stop-color="#13415F"/>
<stop offset="1" stop-color="#A9CCD9"/>
</linearGradient>
<linearGradient id="paint3_linear_5606_2428" x1="72.9417" y1="43.5408" x2="71.4978" y2="124.147" gradientUnits="userSpaceOnUse">
<stop stop-color="#13415F"/>
<stop offset="1" stop-color="#A9CCD9"/>
</linearGradient>
<linearGradient id="paint4_linear_5606_2428" x1="56.0882" y1="43.5408" x2="54.6443" y2="124.147" gradientUnits="userSpaceOnUse">
<stop stop-color="#13415F"/>
<stop offset="1" stop-color="#A9CCD9"/>
</linearGradient>
<linearGradient id="paint5_linear_5606_2428" x1="47.2159" y1="16.7964" x2="15.6649" y2="78.4711" gradientUnits="userSpaceOnUse">
<stop stop-color="#DBF0F6"/>
<stop offset="1" stop-color="#709FB2"/>
</linearGradient>
<linearGradient id="paint6_linear_5606_2428" x1="65.8945" y1="120.059" x2="92.6569" y2="120.059" gradientUnits="userSpaceOnUse">
<stop stop-color="#BB8E71"/>
<stop offset="1" stop-color="#9C7358"/>
</linearGradient>
<linearGradient id="paint7_linear_5606_2428" x1="66.6484" y1="120.059" x2="90.0184" y2="120.059" gradientUnits="userSpaceOnUse">
<stop stop-color="#C9916C"/>
<stop offset="1" stop-color="#9B6A4A"/>
</linearGradient>
<linearGradient id="paint8_linear_5606_2428" x1="49.3446" y1="120.059" x2="74.0129" y2="120.059" gradientUnits="userSpaceOnUse">
<stop stop-color="#C9916C"/>
<stop offset="1" stop-color="#9B6A4A"/>
</linearGradient>
<linearGradient id="paint9_linear_5606_2428" x1="73.3461" y1="35.5729" x2="74.3517" y2="96.0053" gradientUnits="userSpaceOnUse">
<stop stop-color="#A9CCD9"/>
<stop offset="1" stop-color="#13415F"/>
</linearGradient>
<linearGradient id="paint10_linear_5606_2428" x1="105.048" y1="76.5742" x2="105.048" y2="130.93" gradientUnits="userSpaceOnUse">
<stop stop-color="#BB8E71"/>
<stop offset="1" stop-color="#9C7358"/>
</linearGradient>
<linearGradient id="paint11_linear_5606_2428" x1="105.048" y1="77.9381" x2="105.048" y2="120.22" gradientUnits="userSpaceOnUse">
<stop stop-color="#C9916C"/>
<stop offset="1" stop-color="#9B6A4A"/>
</linearGradient>
<linearGradient id="paint12_linear_5606_2428" x1="105.543" y1="71.6333" x2="105.543" y2="81.232" gradientUnits="userSpaceOnUse">
<stop stop-color="#BB8E71"/>
<stop offset="1" stop-color="#9C7358"/>
</linearGradient>
<linearGradient id="paint13_linear_5606_2428" x1="105.543" y1="71.9673" x2="105.543" y2="82.3221" gradientUnits="userSpaceOnUse">
<stop stop-color="#C9916C"/>
<stop offset="1" stop-color="#9B6A4A"/>
</linearGradient>
</defs>
</svg>
