<svg width="199" height="125" viewBox="0 0 199 125" fill="none" xmlns="http://www.w3.org/2000/svg">
<g filter="url(#filter0_n_5606_2454)">
<path d="M50.5159 39.1014L35.1019 55.0224L30.5223 68.4931L65.0728 63.9272L66.1667 44.9881L50.5159 39.1014Z" fill="url(#paint0_linear_5606_2454)"/>
<path d="M84.999 48.2781C84.999 45.2571 87.448 42.8081 90.4691 42.8081C93.4901 42.8081 95.9391 45.2571 95.9391 48.2781V106.973C95.9391 109.994 93.4901 112.443 90.4691 112.443C87.448 112.443 84.999 109.994 84.999 106.973V48.2781Z" fill="url(#paint1_linear_5606_2454)"/>
<path d="M103.599 48.2796C103.599 45.2586 106.048 42.8096 109.069 42.8096C112.09 42.8096 114.539 45.2586 114.539 48.2796V106.974C114.539 109.995 112.09 112.444 109.069 112.444C106.048 112.444 103.599 109.995 103.599 106.974V48.2796Z" fill="url(#paint2_linear_5606_2454)"/>
<path d="M169.241 32.6328L180.485 18.8066L198.327 17.2725L197.812 33.4844L182.13 39.1826L195.829 42.626C195.843 42.678 198.987 59.2896 199 59.3604L183.742 60.4404L167.76 44.8135L100.923 78.1963L57.249 70.7764L44.1211 38.8125L57.249 7.99121L113.591 0L169.241 32.6328Z" fill="#CBEBF3"/>
<path d="M169.241 32.6328L180.485 18.8066L198.327 17.2725L197.812 33.4844L182.13 39.1826L195.829 42.626C195.843 42.678 198.987 59.2896 199 59.3604L183.742 60.4404L167.76 44.8135L100.923 78.1963L57.249 70.7764L44.1211 38.8125L57.249 7.99121L113.591 0L169.241 32.6328Z" fill="url(#paint3_linear_5606_2454)"/>
<ellipse cx="87.3327" cy="31.9633" rx="2.73502" ry="2.85388" fill="#0B273E"/>
<ellipse cx="58.8883" cy="31.9633" rx="2.73502" ry="2.85388" fill="#0B273E"/>
<path d="M65.999 39.3838C65.999 39.3838 67.093 45.0916 72.5631 45.0916C78.0331 45.0916 79.1271 39.3838 79.1271 39.3838" stroke="#0B273E" stroke-width="3"/>
<path d="M103.598 99.8857L114.538 98.7441V118.388C114.538 121.409 112.089 123.858 109.068 123.858C106.047 123.858 103.598 121.409 103.598 118.388V99.8857Z" fill="white"/>
<path d="M84.999 98.1738L95.9391 99.8862V118.389C95.9391 121.41 93.4901 123.859 90.4691 123.859C87.448 123.859 84.999 121.41 84.999 118.389V98.1738Z" fill="white"/>
<path d="M96.5619 113.584L97.6572 125H68.119L74.7587 117.009L96.5619 113.584Z" fill="#BB8E71"/>
<path d="M96.5619 113.584L97.6572 125H68.119L74.7587 117.009L96.5619 113.584Z" fill="url(#paint4_linear_5606_2454)"/>
<path d="M96.5619 113.584L97.6572 125H68.119L74.7587 117.009L96.5619 113.584Z" fill="url(#paint5_linear_5606_2454)"/>
<path d="M115.162 113.584L116.803 125H85.6235L93.2816 117.009L115.162 113.584Z" fill="#BB8E71"/>
<path d="M115.162 113.584L116.803 125H85.6235L93.2816 117.009L115.162 113.584Z" fill="url(#paint6_linear_5606_2454)"/>
<path d="M115.162 113.584L116.803 125H85.6235L93.2816 117.009L115.162 113.584Z" fill="url(#paint7_linear_5606_2454)"/>
<rect width="16.9467" height="41.4503" transform="matrix(0.989464 -0.144781 0.13319 0.991091 109.366 53.6665)" fill="#BB8E71"/>
<rect width="16.9467" height="41.4503" transform="matrix(0.989464 -0.144781 0.13319 0.991091 109.366 53.6665)" fill="url(#paint8_linear_5606_2454)"/>
<path d="M1.14226 50.2268L33.1691 41.0946L44.9025 83.3319L13.6826 95.3201L1.14226 50.2268Z" fill="white" fill-opacity="0.9"/>
<rect width="35.0355" height="52.7377" transform="matrix(-0.109566 -0.993979 0.992875 -0.119164 112.452 91.9082)" fill="white" fill-opacity="0.9"/>
<path d="M112.841 59.1757L165.939 54.6071L168.261 89.6749L114.875 94.7398L112.841 59.1757Z" fill="url(#paint9_linear_5606_2454)"/>
<path d="M112.841 59.1757L165.939 54.6071L168.261 89.6749L114.875 94.7398L112.841 59.1757Z" fill="url(#paint10_linear_5606_2454)"/>
<path d="M139.323 30.8196L149.771 52.1461L149.771 73.2887L112.992 45.0915L116.825 27.3977L139.323 30.8196Z" fill="url(#paint11_linear_5606_2454)"/>
<rect width="8.35965" height="8.35965" transform="matrix(0.691912 -0.721982 0.691912 0.721982 11.25 16.8779)" fill="#D3F4FA"/>
<rect width="6.09603" height="6.09603" transform="matrix(0.691912 -0.721982 0.691912 0.721982 27.6602 4.97217)" fill="#D3F4FA"/>
</g>
<defs>
<filter id="filter0_n_5606_2454" x="0" y="0" width="199" height="125" filterUnits="userSpaceOnUse" color-interpolation-filters="sRGB">
<feFlood flood-opacity="0" result="BackgroundImageFix"/>
<feBlend mode="normal" in="SourceGraphic" in2="BackgroundImageFix" result="shape"/>
<feTurbulence type="fractalNoise" baseFrequency="2 2" stitchTiles="stitch" numOctaves="3" result="noise" seed="5971" />
<feComponentTransfer in="noise" result="coloredNoise1">
<feFuncR type="linear" slope="2" intercept="-0.5" />
<feFuncG type="linear" slope="2" intercept="-0.5" />
<feFuncB type="linear" slope="2" intercept="-0.5" />
<feFuncA type="discrete" tableValues="1 1 1 1 1 1 1 1 1 1 1 1 1 1 1 1 1 1 1 1 1 1 1 1 1 1 1 1 1 1 1 1 1 1 1 1 1 1 1 1 1 1 1 1 1 1 1 1 1 1 1 0 0 0 0 0 0 0 0 0 0 0 0 0 0 0 0 0 0 0 0 0 0 0 0 0 0 0 0 0 0 0 0 0 0 0 0 0 0 0 0 0 0 0 0 0 0 0 0 0 "/>
</feComponentTransfer>
<feComposite operator="in" in2="shape" in="coloredNoise1" result="noise1Clipped" />
<feComponentTransfer in="noise1Clipped" result="color1">
<feFuncA type="table" tableValues="0 0.15" />
</feComponentTransfer>
<feMerge result="effect1_noise_5606_2454">
<feMergeNode in="shape" />
<feMergeNode in="color1" />
</feMerge>
</filter>
<linearGradient id="paint0_linear_5606_2454" x1="71.4443" y1="35.7264" x2="51.6134" y2="144.583" gradientUnits="userSpaceOnUse">
<stop stop-color="#A9CCD9"/>
<stop offset="1" stop-color="#13415F"/>
</linearGradient>
<linearGradient id="paint1_linear_5606_2454" x1="90.8102" y1="37.6556" x2="90.8102" y2="110.877" gradientUnits="userSpaceOnUse">
<stop stop-color="#13415F"/>
<stop offset="1" stop-color="#A9CCD9"/>
</linearGradient>
<linearGradient id="paint2_linear_5606_2454" x1="109.41" y1="37.6571" x2="109.41" y2="110.879" gradientUnits="userSpaceOnUse">
<stop stop-color="#13415F"/>
<stop offset="1" stop-color="#A9CCD9"/>
</linearGradient>
<linearGradient id="paint3_linear_5606_2454" x1="119.428" y1="-1.86306e-06" x2="167.257" y2="67.4696" gradientUnits="userSpaceOnUse">
<stop stop-color="#DBF0F6"/>
<stop offset="1" stop-color="#709FB2"/>
</linearGradient>
<linearGradient id="paint4_linear_5606_2454" x1="97.6572" y1="119.292" x2="68.119" y2="119.292" gradientUnits="userSpaceOnUse">
<stop stop-color="#BB8E71"/>
<stop offset="1" stop-color="#9C7358"/>
</linearGradient>
<linearGradient id="paint5_linear_5606_2454" x1="96.8252" y1="119.292" x2="71.0312" y2="119.292" gradientUnits="userSpaceOnUse">
<stop stop-color="#C9916C"/>
<stop offset="1" stop-color="#9B6A4A"/>
</linearGradient>
<linearGradient id="paint6_linear_5606_2454" x1="116.803" y1="119.292" x2="91.5636" y2="119.292" gradientUnits="userSpaceOnUse">
<stop stop-color="#BB8E71"/>
<stop offset="1" stop-color="#9C7358"/>
</linearGradient>
<linearGradient id="paint7_linear_5606_2454" x1="115.924" y1="119.292" x2="88.6975" y2="119.292" gradientUnits="userSpaceOnUse">
<stop stop-color="#C9916C"/>
<stop offset="1" stop-color="#9B6A4A"/>
</linearGradient>
<linearGradient id="paint8_linear_5606_2454" x1="8.47335" y1="1.16762" x2="8.47335" y2="37.3637" gradientUnits="userSpaceOnUse">
<stop stop-color="#C9916C"/>
<stop offset="1" stop-color="#9B6A4A"/>
</linearGradient>
<linearGradient id="paint9_linear_5606_2454" x1="138.495" y1="56.9619" x2="141.836" y2="92.1791" gradientUnits="userSpaceOnUse">
<stop stop-color="#BB8E71"/>
<stop offset="1" stop-color="#9C7358"/>
</linearGradient>
<linearGradient id="paint10_linear_5606_2454" x1="138.929" y1="57.7079" x2="141.865" y2="88.6539" gradientUnits="userSpaceOnUse">
<stop stop-color="#C9916C"/>
<stop offset="1" stop-color="#9B6A4A"/>
</linearGradient>
<linearGradient id="paint11_linear_5606_2454" x1="118.787" y1="19.1372" x2="103.899" y2="87.7857" gradientUnits="userSpaceOnUse">
<stop stop-color="#A9CCD9"/>
<stop offset="1" stop-color="#13415F"/>
</linearGradient>
</defs>
</svg>
